<mxfile host="app.diagrams.net" modified="2023-08-29T07:51:07.694Z" agent="Mozilla/5.0 (Windows NT 10.0; Win64; x64) AppleWebKit/537.36 (KHTML, like Gecko) Chrome/116.0.0.0 Safari/537.36" version="21.6.9" etag="hRyG3qH8xgkpe-yFZXSp" type="github">
  <diagram name="第 1 页" id="1MY4DxViHI_PI3xSIbr3">
    <mxGraphModel>
      <root>
        <mxCell id="0" />
        <mxCell id="1" parent="0" />
      </root>
    </mxGraphModel>
  </diagram>
</mxfile>
